<svg width="1000" height="1000" viewBox="0 0 1000 1000" fill="none" xmlns="http://www.w3.org/2000/svg">

<circle cx="859.933" cy="611.037" r="2.27583" fill="white"/>
<circle cx="419.804" cy="591.752" r="1.74642" fill="white"/>
<circle cx="95.7078" cy="62.2073" r="2.07354" fill="white"/>
<circle cx="632.862" cy="130.116" r="2.00293" fill="white"/>
<circle cx="353.896" cy="131.22" r="1.94238" fill="white"/>
<circle cx="102.301" cy="629.296" r="1.88466" fill="white"/>
<circle cx="104" cy="705.018" r="2.14347" fill="white"/>
<circle cx="844.181" cy="174.841" r="1.83856" fill="white"/>
<circle cx="11.76" cy="649.83" r="1.75047" fill="white"/>
<circle cx="153.84" cy="271.166" r="2.08087" fill="white"/>
<circle cx="352.821" cy="966.731" r="2.19359" fill="white"/>
<circle cx="167.898" cy="957.856" r="2.40108" fill="white"/>
<circle cx="572.34" cy="480.134" r="2.41147" fill="white"/>
<circle cx="473.945" cy="565.515" r="1.55657" fill="white"/>
<circle cx="447.497" cy="919.656" r="2.47509" fill="white"/>
<circle cx="177.809" cy="422.269" r="2.29981" fill="white"/>
<circle cx="693.348" cy="979.068" r="2.455" fill="white"/>
<circle cx="256.697" cy="904.306" r="1.68094" fill="white"/>
<circle cx="427.91" cy="875.244" r="1.62103" fill="white"/>
<circle cx="15.258" cy="273.985" r="1.6008" fill="white"/>
<circle cx="497.009" cy="68.4976" r="1.27685" fill="white"/>
<circle cx="161.287" cy="191.01" r="1.66577" fill="white"/>
<circle cx="737.911" cy="669.936" r="2.26922" fill="white"/>
<circle cx="467.457" cy="128.604" r="2.35848" fill="white"/>
<circle cx="920.729" cy="909.953" r="1.81983" fill="white"/>
<circle cx="622.801" cy="278.764" r="1.87795" fill="white"/>
<circle cx="903.69" cy="186.934" r="1.53201" fill="white"/>
<circle cx="911.741" cy="960.553" r="2.47619" fill="white"/>
<circle cx="910.366" cy="46.2584" r="1.33649" fill="white"/>
<circle cx="792.614" cy="607.548" r="1.27837" fill="white"/>
<circle cx="577.111" cy="952.419" r="2.48903" fill="white"/>
<circle cx="445.015" cy="927.702" r="1.61419" fill="white"/>
<circle cx="994.312" cy="89.8375" r="1.7037" fill="white"/>
<circle cx="194.738" cy="32.176" r="1.81175" fill="white"/>
<circle cx="702.416" cy="224.096" r="1.87328" fill="white"/>
<circle cx="796.968" cy="837.725" r="1.29475" fill="white"/>
<circle cx="854.832" cy="128.022" r="2.47008" fill="white"/>
<circle cx="329.783" cy="270.565" r="2.49222" fill="white"/>
<circle cx="536.633" cy="190.487" r="2.04765" fill="white"/>
<circle cx="469.957" cy="791.782" r="1.91847" fill="white"/>
<circle cx="642.29" cy="977.295" r="1.78202" fill="white"/>
<circle cx="919.254" cy="25.6703" r="1.46716" fill="white"/>
<circle cx="804.381" cy="67.2149" r="1.59578" fill="white"/>
<circle cx="348.252" cy="234.098" r="2.4627" fill="white"/>
<circle cx="174.727" cy="582.585" r="2.41624" fill="white"/>
<circle cx="255.562" cy="820.841" r="1.93134" fill="white"/>
<circle cx="645.834" cy="563.486" r="1.67937" fill="white"/>
<circle cx="441.79" cy="74.5023" r="1.57461" fill="white"/>
<circle cx="701.845" cy="61.1105" r="1.58613" fill="white"/>
<circle cx="216.047" cy="855.523" r="2.4151" fill="white"/>

</svg>
